<svg width="64" height="64" viewBox="0 0 64 64" fill="none" xmlns="http://www.w3.org/2000/svg">
  <rect width="64" height="64" rx="18" fill="url(#bg)" />
  <path
    d="M42.8 20.2L39.2 12L34.6 21.4"
    stroke="url(#horn)"
    stroke-width="4"
    stroke-linecap="round"
    stroke-linejoin="round"
  />
  <path
    d="M20 39.4C20 28.8 27.9 22 37.8 22C44.7 22 49.5 26.6 49.5 33.3C49.5 40.6 43.9 46 36.5 46H27.8C23.5 46 20 43 20 39.4Z"
    fill="white"
  />
  <path
    d="M30.2 22.4C30.2 19.4 32.7 17 35.8 17C38.6 17 41 19 41.4 21.6C38.5 21.2 34.4 21.4 30.2 22.4Z"
    fill="#E9D5FF"
  />
  <path
    d="M24.5 29.7C25.6 24.9 29.7 21.8 34.6 21.8C36.9 21.8 39.6 22.4 41.5 23.6C38.6 25.3 36.5 28 35.8 31.4C35.1 35.2 32.2 38.2 28.5 39.4L24.8 40.6C23.8 40.9 22.9 40.1 23 39.1L23.4 35.9C23.6 34 23.9 31.8 24.5 29.7Z"
    fill="#C4B5FD"
  />
  <path
    d="M24.2 27.8L19.2 18.8L18 30.4"
    fill="white"
  />
  <circle cx="40.4" cy="31.2" r="2.4" fill="#1E1B4B" />
  <path
    d="M35.4 35.8C37 37.2 39.6 37.2 41.2 35.8"
    stroke="#1E1B4B"
    stroke-width="2.4"
    stroke-linecap="round"
  />
  <defs>
    <linearGradient id="bg" x1="8" y1="6" x2="56" y2="58" gradientUnits="userSpaceOnUse">
      <stop stop-color="#8B5CF6" />
      <stop offset="1" stop-color="#6366F1" />
    </linearGradient>
    <linearGradient id="horn" x1="34.6" y1="12" x2="42.8" y2="20.2" gradientUnits="userSpaceOnUse">
      <stop stop-color="#FDE68A" />
      <stop offset="1" stop-color="#F59E0B" />
    </linearGradient>
  </defs>
</svg>
